<?xml version="1.0" standalone="no"?>
<!DOCTYPE svg PUBLIC "-//W3C//DTD SVG 20010904//EN"
 "http://www.w3.org/TR/2001/REC-SVG-20010904/DTD/svg10.dtd">
<svg version="1.0" xmlns="http://www.w3.org/2000/svg"
 width="4002.000000pt" height="4002.000000pt" viewBox="0 0 4002.000000 4002.000000"
 preserveAspectRatio="xMidYMid meet">

<g transform="translate(0.000000,4002.000000) scale(0.100000,-0.100000)"
fill="#000000" stroke="none">
<path d="M19689 40016 c-2 -2 -130 -6 -284 -10 -915 -20 -1995 -133 -2955
-306 -2869 -520 -5582 -1659 -7970 -3348 -3335 -2359 -5874 -5676 -7269 -9494
-1009 -2764 -1393 -5713 -1126 -8665 342 -3781 1759 -7384 4093 -10403 1229
-1589 2715 -3008 4353 -4157 1450 -1017 2966 -1810 4629 -2421 1845 -677 3876
-1090 5820 -1182 118 -5 257 -12 308 -15 178 -10 1029 -13 1292 -5 2721 86
5268 678 7730 1796 234 106 921 448 1145 569 1937 1049 3652 2369 5143 3958
1545 1646 2808 3549 3714 5597 1205 2723 1781 5662 1697 8654 -163 5794 -2829
11207 -7347 14914 -371 304 -903 706 -1274 960 -35 24 -111 77 -169 117 -177
124 -630 413 -939 600 -705 428 -1597 884 -2410 1232 -2150 923 -4445 1457
-6813 1583 -373 20 -1353 39 -1368 26z m856 -4777 c2597 -93 5074 -827 7304
-2166 1986 -1193 3712 -2866 4970 -4816 1407 -2181 2223 -4645 2396 -7232 46
-693 42 -1460 -11 -2175 -166 -2241 -840 -4430 -1967 -6395 -324 -564 -626
-1021 -1087 -1643 -29 -39 -36 -40 -68 -4 -22 24 -191 200 -510 534 -56 59
-149 156 -206 215 -58 60 -114 119 -126 133 -12 14 -65 70 -118 125 -53 56
-144 150 -201 210 -58 61 -148 155 -200 210 -53 55 -184 192 -291 305 -107
113 -242 254 -300 315 -203 212 -325 340 -335 351 -5 6 -57 60 -115 120 -58
60 -190 199 -295 309 -104 110 -235 247 -291 305 -55 58 -145 152 -200 210
-54 57 -145 152 -201 210 -56 58 -111 116 -123 130 -12 14 -67 72 -123 130
-135 140 -273 286 -616 645 -63 66 -156 163 -206 215 -113 118 -468 491 -720
755 -104 110 -241 254 -304 320 -203 212 -283 296 -506 530 -121 127 -310 325
-420 440 -110 116 -302 316 -425 445 -123 129 -269 282 -324 340 -56 58 -148
155 -205 215 -58 61 -143 151 -191 200 -47 50 -229 241 -405 425 -175 184
-363 382 -419 440 -55 58 -148 155 -206 215 -58 61 -148 155 -200 210 -53 55
-195 204 -315 330 -437 458 -598 627 -1015 1065 -854 895 -1275 1337 -1365
1430 -50 52 -368 385 -706 740 -337 355 -803 843 -1034 1085 -231 242 -602
631 -825 865 -223 234 -733 769 -1135 1190 -401 421 -912 956 -1135 1190 -223
234 -731 767 -1130 1185 -399 418 -1045 1095 -1435 1504 -391 410 -965 1013
-1277 1340 -313 327 -568 598 -568 601 0 17 518 354 815 532 1515 905 3077
1517 4755 1863 826 170 1742 279 2525 302 121 3 222 7 224 9 7 6 643 1 866 -7z
m-12289 -6359 c186 -196 470 -493 629 -660 160 -168 621 -651 1025 -1075 404
-424 915 -959 1135 -1190 220 -231 780 -818 1245 -1305 464 -487 975 -1022
1135 -1190 160 -168 668 -701 1130 -1185 1867 -1956 2489 -2610 2894 -3035
233 -245 465 -488 515 -540 51 -52 467 -489 926 -970 1260 -1321 1375 -1442
2056 -2155 346 -363 861 -903 1144 -1200 283 -297 879 -922 1325 -1390 3373
-3536 5146 -5395 5199 -5453 29 -31 46 -56 40 -61 -5 -5 -92 -65 -194 -133
-796 -534 -1730 -1034 -2640 -1413 -437 -183 -1120 -424 -1559 -550 -1231
-354 -2416 -544 -3721 -595 -211 -8 -1058 -5 -1195 5 -38 3 -155 10 -260 15
-1701 96 -3462 511 -5040 1188 -3019 1294 -5542 3520 -7196 6348 -1170 2002
-1860 4211 -2033 6514 -33 428 -40 651 -40 1170 0 518 7 721 40 1155 215 2852
1242 5598 2958 7903 66 89 126 161 132 160 6 -2 163 -163 350 -358z"/>
</g>
</svg>
